<svg width="16" height="16" viewBox="0 0 16 16" fill="none" xmlns="http://www.w3.org/2000/svg">
<g clip-path="url(#clip0_2181_3473)">
<path d="M15.25 3H12.75V2.25C12.75 2.18369 12.7237 2.12011 12.6768 2.07322C12.6299 2.02634 12.5663 2 12.5 2H2.35999C2.43872 1.86728 2.48567 1.71813 2.49716 1.56424C2.50865 1.41035 2.48437 1.25589 2.42622 1.11295C2.36806 0.970011 2.27762 0.842468 2.16196 0.740307C2.0463 0.638145 1.90857 0.564137 1.75954 0.524076C1.61051 0.484015 1.45424 0.478988 1.30294 0.509388C1.15165 0.539788 1.00944 0.604791 0.887457 0.699307C0.765471 0.793824 0.667015 0.915291 0.599795 1.0542C0.532575 1.19311 0.498416 1.34569 0.499991 1.5C0.500084 1.74087 0.58911 1.97323 0.749991 2.1525V15.25C0.749991 15.3163 0.77633 15.3799 0.823214 15.4268C0.870098 15.4737 0.933687 15.5 0.999991 15.5H1.99999C2.0663 15.5 2.12988 15.4737 2.17677 15.4268C2.22365 15.3799 2.24999 15.3163 2.24999 15.25V11.5H7.74999V12.25C7.74999 12.3163 7.77633 12.3799 7.82321 12.4268C7.8701 12.4737 7.93369 12.5 7.99999 12.5H15.25C15.3163 12.5 15.3799 12.4737 15.4268 12.4268C15.4737 12.3799 15.5 12.3163 15.5 12.25V3.25C15.5 3.18369 15.4737 3.12011 15.4268 3.07322C15.3799 3.02634 15.3163 3 15.25 3ZM2.24999 7H12.25V8H2.24999V7ZM8.24999 6.5V5.5H12.25V6.5H8.24999ZM8.24999 5V4H12.25V5H8.24999ZM7.74999 6.5H2.24999V2.5H7.74999V6.5ZM2.24999 8.5H12.25V9.5H2.24999V8.5ZM12.25 3.5H8.24999V2.5H12.25V3.5ZM1.49999 0.999998C1.6326 0.999998 1.75978 1.05268 1.85354 1.14644C1.94731 1.24021 1.99999 1.36739 1.99999 1.5C1.99986 1.57038 1.98487 1.63994 1.95601 1.70413C1.92715 1.76832 1.88506 1.82569 1.83249 1.8725C1.74077 1.95472 1.62192 2.00019 1.49874 2.00019C1.37556 2.00019 1.25671 1.95472 1.16499 1.8725C1.11288 1.82547 1.07126 1.76799 1.04283 1.70382C1.0144 1.63964 0.999806 1.57019 0.999991 1.5C0.999991 1.36739 1.05267 1.24021 1.14644 1.14644C1.24021 1.05268 1.36738 0.999998 1.49999 0.999998ZM1.24999 15V2.465C1.33163 2.4866 1.41556 2.49836 1.49999 2.5C1.58444 2.49853 1.66839 2.48677 1.74999 2.465V15H1.24999ZM2.24999 10H12.25V11H2.24999V10ZM15 12H8.24999V11.5H12.5C12.5663 11.5 12.6299 11.4737 12.6768 11.4268C12.7237 11.3799 12.75 11.3163 12.75 11.25V11H15V12ZM15 10.5H12.75V9.5H15V10.5ZM15 9H12.75V8H15V9ZM15 7.5H12.75V6.5H15V7.5ZM15 6H12.75V5H15V6ZM15 4.5H12.75V3.5H15V4.5Z" fill="#939CA3"/>
<path d="M3 4H3.5V3.75H3.75V3.25H3.5V3H3V3.25H2.75V3.75H3V4ZM6.5 4H7V3.75H7.25V3.25H7V3H6.5V3.25H6.25V3.75H6.5V4ZM4.75 4H5.25V3.75H5.5V3.25H5.25V3H4.75V3.25H4.5V3.75H4.75V4ZM3 5.75V6H3.5V5.75H3.75V5.25H3.5V5H3V5.25H2.75V5.75H3ZM4.75 6H5.25V5.75H5.5V5.25H5.25V5H4.75V5.25H4.5V5.75H4.75V6ZM6.5 6H7V5.75H7.25V5.25H7V5H6.5V5.25H6.25V5.75H6.5V6Z" fill="#939CA3"/>
</g>
<defs>
<clipPath id="clip0_2181_3473">
<rect width="16" height="16" fill="white"/>
</clipPath>
</defs>
</svg>
