<svg width="16" height="16" viewBox="0 0 16 16" fill="none" xmlns="http://www.w3.org/2000/svg">
<path fill-rule="evenodd" clip-rule="evenodd" d="M4.40122 11.8213C4.40753 11.822 4.41383 11.8228 4.42013 11.8233C4.74344 11.8233 5.06684 11.8232 5.39023 11.8231C5.71363 11.823 6.03703 11.8229 6.36034 11.8229C6.44691 11.8231 6.53357 11.8232 6.62022 11.8233C6.70688 11.8234 6.79354 11.8235 6.88011 11.8237C7.2036 11.8235 7.527 11.8234 7.8504 11.8233C8.17379 11.8232 8.49719 11.8231 8.82068 11.8229C8.90725 11.8231 8.99391 11.8232 9.08057 11.8233C9.16723 11.8234 9.25389 11.8235 9.34045 11.8237C9.66394 11.8235 9.98734 11.8234 10.3107 11.8233C10.6341 11.8232 10.9575 11.8231 11.281 11.8229C11.3676 11.8231 11.4543 11.8232 11.5409 11.8233C11.6276 11.8234 11.7142 11.8235 11.8008 11.8237L11.8329 11.7916C11.8327 11.7051 11.8326 11.6185 11.8325 11.5319C11.8324 11.4453 11.8323 11.3587 11.8321 11.2722C11.8323 10.9489 11.8324 10.6257 11.8325 10.3025C11.8326 9.9793 11.8327 9.65611 11.8329 9.33283C11.8327 9.24632 11.8326 9.15972 11.8325 9.07311C11.8324 8.98651 11.8323 8.89991 11.8321 8.81339C11.8323 8.49011 11.8324 8.16692 11.8325 7.84373C11.8326 7.52054 11.8327 7.19735 11.8329 6.87407C11.8547 6.7269 11.7917 6.61508 11.6856 6.5211C11.3594 6.2122 11.0419 5.8942 10.7321 5.56855C10.6319 5.48404 10.5396 5.39225 10.4554 5.29171C10.1292 4.98209 9.81138 4.66446 9.50193 4.33881C9.47706 4.31971 9.45403 4.29722 9.431 4.27474C9.36222 4.20759 9.29349 4.14049 9.17607 4.16396C8.85258 4.16414 8.52918 4.16423 8.20578 4.16432C7.88238 4.16441 7.55898 4.16451 7.23549 4.16469C7.14892 4.16451 7.06227 4.16441 6.97561 4.16432C6.88895 4.16423 6.80229 4.16414 6.71572 4.16396C6.39223 4.16414 6.06883 4.16423 5.74544 4.16432C5.42204 4.16441 5.09864 4.16451 4.77515 4.16469C4.68858 4.16451 4.60192 4.16441 4.51526 4.16432C4.4286 4.16423 4.34195 4.16414 4.25538 4.16396C4.19196 4.1585 4.16316 4.18727 4.16863 4.25065C4.16881 4.33717 4.1689 4.42377 4.16899 4.51037C4.16908 4.59698 4.16917 4.68358 4.16936 4.77009C4.16917 5.09337 4.16908 5.41656 4.16899 5.73975C4.1689 6.06295 4.16881 6.38614 4.16863 6.70942C4.16881 6.79593 4.1689 6.88253 4.16899 6.96914C4.16908 7.05574 4.16917 7.14234 4.16936 7.22886C4.16917 7.55214 4.16908 7.87533 4.16899 8.19852C4.1689 8.52171 4.16881 8.8449 4.16863 9.16819C4.16881 9.2547 4.1689 9.3413 4.16899 9.4279C4.16908 9.51451 4.16917 9.60111 4.16936 9.68762C4.16917 10.0109 4.16908 10.3341 4.16899 10.6573C4.1689 10.9805 4.16881 11.3037 4.16863 11.6269C4.17993 11.8156 4.17993 11.8156 4.36728 11.8186C4.37871 11.8188 4.38999 11.8201 4.40122 11.8213ZM10.7299 10.2482C10.73 10.3347 10.7301 10.4212 10.7303 10.5076C10.7359 10.62 10.7387 10.6763 10.712 10.7031C10.6852 10.73 10.6287 10.7272 10.5156 10.7218C10.429 10.7216 10.3424 10.7215 10.2557 10.7214C10.169 10.7213 10.0824 10.7212 9.99582 10.721C9.67251 10.7212 9.34911 10.7213 9.02571 10.7214C8.70231 10.7215 8.37891 10.7216 8.05561 10.7218C7.96886 10.7216 7.8822 10.7215 7.79554 10.7214C7.70888 10.7213 7.62222 10.7212 7.53547 10.721C7.21216 10.7212 6.88877 10.7213 6.56537 10.7214C6.24197 10.7215 5.91857 10.7216 5.59526 10.7218C5.58859 10.7222 5.58193 10.7227 5.57526 10.7233C5.55969 10.7245 5.54413 10.7258 5.52856 10.7258C5.3937 10.7269 5.32591 10.7274 5.29353 10.6938C5.2608 10.6599 5.26426 10.591 5.27123 10.4526C5.27141 10.1295 5.2715 9.80628 5.27159 9.48309C5.27168 9.1599 5.27177 8.83671 5.27196 8.51361C5.27177 8.42691 5.27168 8.34031 5.27159 8.25371C5.2715 8.1671 5.27141 8.0805 5.27123 7.99381C5.27141 7.67071 5.2715 7.34751 5.27159 7.02432C5.27168 6.70113 5.27177 6.37794 5.27196 6.05484C5.27177 5.96833 5.27168 5.88173 5.27159 5.79512C5.2715 5.70852 5.27141 5.62192 5.27123 5.5354C5.26412 5.39392 5.26057 5.32316 5.29417 5.28955C5.32779 5.25592 5.39859 5.25947 5.54022 5.26658C5.62679 5.26676 5.71345 5.26685 5.80011 5.26694C5.88677 5.26703 5.97343 5.26713 6.05999 5.26731C6.3833 5.26713 6.7067 5.26703 7.0301 5.26694C7.3535 5.26685 7.6769 5.26676 8.0002 5.26658C8.08695 5.26676 8.17361 5.26685 8.26027 5.26694C8.34693 5.26703 8.43359 5.26713 8.52034 5.26731C8.74961 5.22724 8.93076 5.28552 9.08749 5.47494C9.21144 5.62449 9.3512 5.76108 9.49102 5.89773C9.55144 5.95678 9.61188 6.01584 9.67105 6.07597C9.77165 6.15975 9.86351 6.25191 9.9477 6.35208C10.0026 6.40633 10.0575 6.46061 10.1124 6.51487C10.3047 6.70506 10.4969 6.89513 10.6909 7.08388C10.7281 7.11958 10.7365 7.1571 10.735 7.20409C10.7328 7.27649 10.7319 7.34873 10.731 7.42103C10.7306 7.45712 10.7302 7.49323 10.7295 7.52937C10.7297 7.61618 10.7298 7.7029 10.7299 7.78961C10.73 7.8761 10.7301 7.96259 10.7303 8.04917C10.7301 8.37185 10.73 8.69462 10.7299 9.01739C10.7298 9.341 10.7297 9.66462 10.7295 9.98814C10.7297 10.0748 10.7298 10.1615 10.7299 10.2482Z" fill="#939CA3"/>
<path fill-rule="evenodd" clip-rule="evenodd" d="M9.64118 1H8.54769C8.54769 1.07962 8.5475 1.15927 8.54732 1.23893C8.54682 1.45519 8.54631 1.67155 8.54951 1.8877C8.5506 1.96493 8.5291 1.98642 8.45183 1.98533C8.15148 1.98095 7.85077 1.98095 7.55006 1.98533C7.47279 1.98642 7.45129 1.96493 7.45238 1.8877C7.45558 1.67155 7.45507 1.45519 7.45457 1.23893C7.45439 1.15927 7.4542 1.07962 7.4542 1H6.36072C6.36072 1.07962 6.36053 1.15927 6.36035 1.23893C6.35984 1.45519 6.35934 1.67155 6.36254 1.8877C6.36363 1.96493 6.34213 1.98642 6.26485 1.98533C5.96451 1.98095 5.6638 1.98095 5.36309 1.98533C5.28582 1.98642 5.26431 1.96493 5.26541 1.8877C5.2686 1.67154 5.2681 1.45519 5.2676 1.23892C5.26741 1.15926 5.26723 1.07962 5.26723 1H4.17374C4.17192 1.26409 4.17046 1.52781 4.169 1.79227C4.18067 1.99043 4.18067 1.99043 3.98238 1.97877C3.90544 1.98322 3.82844 1.98424 3.75147 1.98526C3.5699 1.98768 3.38851 1.99009 3.20856 2.03741C2.51383 2.21991 1.99843 2.86684 1.9875 3.58552C1.98726 3.60209 1.98701 3.61865 1.98677 3.63522C1.98436 3.79611 1.98195 3.95724 1.98823 4.11807C1.99187 4.21059 1.96964 4.24338 1.8705 4.24046C1.73712 4.23666 1.60375 4.23743 1.47038 4.2382C1.34861 4.2389 1.22683 4.2396 1.10506 4.23682C1.01976 4.235 0.998987 4.25941 1.00045 4.34282C1.00555 4.6386 1.00591 4.93475 1.00008 5.23053C0.998258 5.31868 1.02705 5.3358 1.10834 5.33398C1.24518 5.33129 1.38212 5.33153 1.51905 5.33178C1.64182 5.332 1.76458 5.33223 1.88726 5.33033C1.96126 5.32924 1.99005 5.3449 1.98859 5.4265C1.98385 5.72701 1.98385 6.02753 1.98859 6.32804C1.99005 6.40745 1.96417 6.42712 1.88836 6.42603C1.7586 6.42384 1.62874 6.42412 1.49889 6.42439C1.36904 6.42466 1.23919 6.42494 1.10943 6.42275C1.03179 6.42166 0.998258 6.43331 1.00045 6.52401C1.00701 6.8198 1.00591 7.11594 1.00117 7.41172C1.00008 7.49368 1.01867 7.52209 1.10578 7.5199C1.23377 7.51703 1.36184 7.51735 1.48991 7.51766C1.62154 7.51798 1.75317 7.51831 1.88471 7.51517C1.9711 7.51298 1.99078 7.53957 1.98932 7.62226C1.98422 7.91367 1.9824 8.20544 1.99005 8.49649C1.9926 8.59921 1.95506 8.61451 1.86539 8.61232C1.73407 8.60932 1.60275 8.6097 1.47142 8.61008C1.3476 8.61043 1.22378 8.61079 1.09995 8.60832C1.02232 8.60686 1.00045 8.62799 1.00154 8.70594C1.00591 9.00172 1.0081 9.29786 1.00045 9.59364C0.998258 9.68762 1.03507 9.71203 1.11453 9.71093C1.27783 9.69673 1.44112 9.69673 1.60441 9.71166C1.79822 9.69194 1.89398 9.6822 1.94129 9.72545C1.9875 9.76769 1.9875 9.86047 1.9875 10.0439C1.9875 10.1051 1.98724 10.1664 1.98698 10.2277C1.98632 10.3844 1.98565 10.5412 1.98932 10.6981C1.99114 10.776 1.96818 10.7986 1.89054 10.7972C1.76314 10.795 1.63573 10.7953 1.50836 10.7956C1.37192 10.7959 1.23552 10.7962 1.09922 10.7935C1.02086 10.7921 1.00045 10.815 1.00154 10.8919C1.00591 11.1917 1.00591 11.4918 1.00154 11.7916C1.00045 11.8699 1.02414 11.8939 1.10105 11.8899C1.16035 11.8867 1.22001 11.8897 1.27965 11.8927C1.30615 11.894 1.33265 11.8953 1.35911 11.8961C1.53188 11.883 1.70502 11.8823 1.87779 11.8972C1.97511 11.8641 1.99005 11.9111 1.98896 11.9974C1.98867 12.0197 1.98834 12.0421 1.98801 12.0644C1.98361 12.3586 1.97922 12.6527 2.09102 12.9361C2.15646 13.1014 2.25056 13.2483 2.34509 13.3958L2.3458 13.3969C2.40008 13.4519 2.45453 13.5067 2.50902 13.5616C2.53613 13.5888 2.56325 13.6161 2.59037 13.6435C3.02813 13.9874 3.53879 14.0322 4.06767 14.0045C4.07402 14.0041 4.08069 14.0035 4.08745 14.0029C4.13777 13.9985 4.19379 13.9935 4.16937 14.0853C4.16955 14.172 4.16964 14.2586 4.16973 14.3452C4.16982 14.4318 4.16992 14.5184 4.1701 14.6051L4.17051 14.6091C4.17183 14.6216 4.17312 14.6337 4.17411 14.6459C4.17777 14.6846 4.17285 14.7277 4.168 14.7702C4.15886 14.8505 4.14995 14.9286 4.19926 14.9705C4.24439 15.0092 4.32985 15.0013 4.41446 14.9935C4.44942 14.9903 4.48424 14.9871 4.516 14.9873C4.59452 14.9876 4.67304 14.9874 4.75154 14.9871C4.89169 14.9866 5.03179 14.9862 5.17173 14.9894C5.249 14.9913 5.27087 14.969 5.26942 14.8918C5.26705 14.76 5.26732 14.628 5.26759 14.496C5.26787 14.364 5.26814 14.232 5.26577 14.0999C5.26431 14.0227 5.28618 14.0012 5.36346 14.0023C5.66417 14.0067 5.96451 14.0067 6.26522 14.0023C6.34249 14.0012 6.36946 14.0223 6.36254 14.0999C6.35712 14.1607 6.357 14.2219 6.35687 14.283C6.35682 14.3083 6.35677 14.3336 6.35634 14.3589C6.35634 14.441 6.35643 14.5231 6.35652 14.6051C6.35662 14.6872 6.35671 14.7692 6.35671 14.8514C6.34468 14.957 6.37785 14.9964 6.49631 14.9916C6.77806 14.98 7.06091 14.9843 7.3434 14.9898C7.42978 14.9916 7.4593 14.972 7.45675 14.8798C7.45295 14.7373 7.45343 14.5948 7.45392 14.4522C7.45432 14.3352 7.45472 14.2183 7.45274 14.1014C7.45129 14.026 7.46988 14.0012 7.54897 14.0023C7.84968 14.0074 8.15039 14.007 8.4511 14.0027C8.52691 14.0016 8.55133 14.0201 8.54988 14.0992C8.54728 14.2335 8.54751 14.3677 8.54775 14.502C8.54797 14.6318 8.5482 14.7616 8.54587 14.8914C8.54441 14.9672 8.56446 14.9909 8.64282 14.9898C8.94353 14.9854 9.24424 14.9854 9.54495 14.9898C9.62076 14.9909 9.64482 14.9716 9.64336 14.8929C9.64077 14.7587 9.64109 14.6245 9.64142 14.4903C9.64173 14.3604 9.64205 14.2305 9.63972 14.1006C9.63826 14.0241 9.65867 14.0012 9.73667 14.0023C10.0374 14.0067 10.3381 14.0067 10.6388 14.0023C10.7157 14.0012 10.7383 14.022 10.7368 14.0995C10.7345 14.2316 10.7348 14.3636 10.735 14.4957C10.7353 14.6277 10.7356 14.7598 10.7332 14.8918C10.7317 14.969 10.7536 14.9905 10.8309 14.9894C11.1316 14.9851 11.4323 14.9851 11.733 14.9894C11.8103 14.9905 11.8322 14.969 11.8307 14.8918C11.8279 14.7416 11.8297 14.5913 11.8316 14.4411C11.8324 14.3775 11.8332 14.3139 11.8336 14.2504C11.819 13.9943 11.819 13.9943 12.0753 14.0088C12.1424 14.005 12.2097 14.0037 12.2769 14.0024C12.4449 13.9992 12.613 13.9959 12.7798 13.9528C13.4921 13.7681 14.0046 13.1262 14.0155 12.3919C14.0169 12.283 14.0188 12.1737 14.0206 12.0648C14.0104 11.8801 14.0104 11.8801 14.1795 11.898C14.4532 11.8848 14.7266 11.8797 15 11.9009V10.8081C14.8082 10.7895 14.616 10.7927 14.4238 10.7959C14.3263 10.7975 14.2288 10.7991 14.1314 10.7979C14.0519 10.7972 14.0107 10.7899 14.0133 10.6908C14.021 10.3961 14.0195 10.1014 14.014 9.80673C14.0122 9.72223 14.0352 9.69928 14.1194 9.7011C14.3331 9.70609 14.5471 9.70467 14.761 9.70324C14.7965 9.703 14.8321 9.70276 14.8677 9.70256C14.8788 9.70246 14.8901 9.70328 14.9014 9.70409C14.935 9.70651 14.9689 9.70895 15 9.68798V8.62252C14.976 8.61862 14.9518 8.61481 14.9276 8.61101C14.9067 8.60771 14.8857 8.60441 14.8648 8.60103C14.7634 8.61742 14.6625 8.61669 14.5615 8.60103C14.5248 8.6017 14.4881 8.60232 14.4514 8.60293C14.3292 8.60498 14.207 8.60703 14.0847 8.61123C14.0301 8.61305 14.0144 8.59156 14.0148 8.53947C14.0166 8.22111 14.0159 7.90238 14.0151 7.58401C14.0148 7.54212 14.0206 7.51553 14.0731 7.51699C14.1924 7.52023 14.3117 7.51884 14.431 7.51746C14.6206 7.51526 14.8102 7.51306 14.9996 7.52938V6.40927C14.938 6.43616 14.8757 6.42628 14.8131 6.41635L14.8075 6.41547C14.6344 6.43113 14.4609 6.43113 14.2878 6.41474C14.1509 6.4303 14.0828 6.43804 14.049 6.40766C14.0155 6.3776 14.0155 6.31021 14.0155 6.17615C14.0155 6.10742 14.0157 6.03866 14.0159 5.96989C14.0164 5.793 14.0169 5.61603 14.014 5.43925C14.0126 5.36275 14.0217 5.32523 14.1143 5.3296C14.2405 5.33553 14.3668 5.33391 14.4932 5.3323C14.6621 5.33014 14.831 5.32798 14.9996 5.34381V4.25103L14.5615 4.23026C14.5156 4.2311 14.4697 4.23181 14.4237 4.23253C14.3091 4.23431 14.1945 4.2361 14.08 4.23974C14.025 4.24156 14.006 4.22079 14.0195 4.1687C14.0188 4.1014 14.0187 4.03405 14.0187 3.9667C14.0185 3.82011 14.0183 3.6735 14.0118 3.52724C13.9965 3.17537 13.8562 2.86866 13.6546 2.58599L13.4079 2.34121C13.0124 2.03814 12.5593 1.95072 12.0735 1.98278C12.0301 1.98551 11.9866 1.98349 11.9432 1.98147C11.923 1.98053 11.9029 1.97959 11.8828 1.97913C11.8222 1.99254 11.825 1.95652 11.8275 1.92391C11.828 1.91753 11.8285 1.91128 11.8285 1.90555C11.8285 1.78834 11.8297 1.67113 11.831 1.55391C11.8314 1.51486 11.8318 1.4758 11.8322 1.43675L11.8278 1H10.7343C10.7343 1.07962 10.7341 1.15927 10.7339 1.23894C10.7334 1.4552 10.7329 1.67155 10.7361 1.8877C10.7372 1.96493 10.7157 1.98642 10.6384 1.98533C10.3472 1.98095 10.0552 1.97877 9.76401 1.98642C9.66159 1.98897 9.62441 1.96311 9.63972 1.86038C9.64584 1.81984 9.64571 1.77823 9.64559 1.73667C9.64553 1.71886 9.64548 1.70106 9.64591 1.68335C9.64518 1.56952 9.64436 1.4556 9.64354 1.34168C9.64272 1.22775 9.6419 1.11383 9.64118 1ZM3.46298 12.88C3.30551 12.8345 3.19252 12.7394 3.13493 12.5835C3.09338 12.5259 3.08171 12.4586 3.08062 12.3901C3.08091 11.939 3.08214 11.4879 3.08336 11.0368C3.08367 10.924 3.08397 10.8112 3.08427 10.6984C3.08408 10.6117 3.08399 10.5251 3.0839 10.4385C3.08381 10.3519 3.08372 10.2653 3.08354 10.1786C3.08372 9.85555 3.08381 9.53235 3.0839 9.20916C3.08399 8.88597 3.08408 8.56278 3.08427 8.23968C3.08408 8.15299 3.08399 8.06639 3.0839 7.97978C3.08381 7.89318 3.08372 7.80658 3.08354 7.71988C3.08372 7.39678 3.08381 7.07359 3.0839 6.7504C3.08399 6.42721 3.08408 6.10402 3.08427 5.78092C3.08408 5.69423 3.08399 5.60763 3.0839 5.52102C3.08381 5.43442 3.08372 5.34782 3.08354 5.26112C3.08321 5.09561 3.08243 4.93014 3.08165 4.76468C3.07982 4.37482 3.07798 3.98509 3.08208 3.59536C3.085 3.31524 3.31864 3.08139 3.5993 3.07847C3.98477 3.07443 4.37041 3.07635 4.75599 3.07827C4.92606 3.07911 5.09611 3.07996 5.26614 3.08029C5.35291 3.08048 5.4396 3.08057 5.52629 3.08066C5.61292 3.08075 5.69955 3.08084 5.78627 3.08102C6.10947 3.08084 6.43277 3.08075 6.75606 3.08066C7.07956 3.08057 7.40307 3.08048 7.72648 3.08029C7.81326 3.08048 7.89995 3.08057 7.98663 3.08066C8.07326 3.08075 8.15989 3.08084 8.24662 3.08102C8.56982 3.08084 8.89311 3.08075 9.2164 3.08066C9.53991 3.08057 9.86341 3.08048 10.1868 3.08029C10.2736 3.08048 10.3603 3.08057 10.447 3.08066C10.5336 3.08075 10.6202 3.08084 10.707 3.08102C10.848 3.08066 10.9891 3.08025 11.1302 3.07984C11.5533 3.07861 11.9765 3.07738 12.3997 3.07738C12.4675 3.07738 12.5353 3.08904 12.5929 3.13093C12.7492 3.18848 12.844 3.3014 12.8896 3.45876C12.8928 3.47256 12.8969 3.48637 12.901 3.50017C12.9098 3.53008 12.9187 3.55999 12.9187 3.58989C12.9194 4.1013 12.918 4.61298 12.9167 5.12446C12.9165 5.19734 12.9163 5.27021 12.9162 5.34308C12.9163 5.42978 12.9164 5.51638 12.9165 5.60298C12.9166 5.68959 12.9167 5.77619 12.9169 5.86288C12.9167 6.18598 12.9166 6.50917 12.9165 6.83236C12.9164 7.15555 12.9163 7.47874 12.9162 7.80184C12.9163 7.88854 12.9164 7.97514 12.9165 8.06174C12.9166 8.14834 12.9167 8.23495 12.9169 8.32164C12.9167 8.64474 12.9166 8.96793 12.9165 9.29112C12.9164 9.61431 12.9163 9.9375 12.9162 10.2606C12.9163 10.3473 12.9164 10.4339 12.9165 10.5205C12.9166 10.6071 12.9167 10.6937 12.9169 10.7804C12.9173 10.9289 12.9181 11.0774 12.9188 11.2259C12.9208 11.6143 12.9228 12.0027 12.9184 12.3912C12.9151 12.6716 12.6818 12.9051 12.4011 12.9084C12.025 12.9128 11.649 12.9108 11.2729 12.9089C11.1117 12.9081 10.9505 12.9073 10.7893 12.907C10.7026 12.9068 10.6159 12.9067 10.5293 12.9066C10.4426 12.9065 10.356 12.9064 10.2692 12.9062C9.94589 12.9064 9.62249 12.9065 9.2991 12.9066C8.9757 12.9067 8.6523 12.9068 8.32899 12.907C8.24224 12.9068 8.15558 12.9067 8.06892 12.9066C7.98226 12.9065 7.89561 12.9064 7.80886 12.9062C7.48555 12.9064 7.16215 12.9065 6.83875 12.9066C6.51535 12.9067 6.19195 12.9068 5.86865 12.907C5.7819 12.9068 5.69524 12.9067 5.60858 12.9066C5.52192 12.9065 5.43526 12.9064 5.34851 12.9062C5.23146 12.9065 5.1144 12.9068 4.99733 12.9072C4.52963 12.9084 4.0618 12.9097 3.5942 12.9091C3.56427 12.9091 3.53434 12.9003 3.50441 12.8914C3.4906 12.8873 3.47679 12.8832 3.46298 12.88Z" fill="#939CA3"/>
</svg>
