<svg width="199" height="26" viewBox="0 0 199 26" fill="none" xmlns="http://www.w3.org/2000/svg">
<rect x="0.47" y="0.47" width="198.06" height="25.06" rx="12.53" fill="url(#paint0_radial_3290_16)"/>
<rect x="0.47" y="0.47" width="198.06" height="25.06" rx="12.53" stroke="url(#paint1_radial_3290_16)" stroke-width="0.94"/>
<path d="M15.6473 7.14638C15.8427 6.95105 16.1595 6.95123 16.3546 7.14678C17.5947 8.38913 18.9689 9 20.5 9C20.7761 9 21 9.22386 21 9.5V12.5013C21 15.7196 19.3587 17.9075 16.1581 18.9743C16.0555 19.0086 15.9445 19.0086 15.8419 18.9743C12.6413 17.9075 11 15.7196 11 12.5013V9.5C11 9.22386 11.2239 9 11.5 9C13.0292 9 14.4042 8.38902 15.6473 7.14638Z" fill="white"/>
<path d="M30.4261 9.79403V8.27273H37.5938V9.79403H34.9219V17H33.098V9.79403H30.4261ZM39.7159 17.1236C39.2983 17.1236 38.9261 17.0511 38.5994 16.9062C38.2727 16.7585 38.0142 16.5412 37.8239 16.2543C37.6364 15.9645 37.5426 15.6037 37.5426 15.1719C37.5426 14.8082 37.6094 14.5028 37.7429 14.2557C37.8764 14.0085 38.0582 13.8097 38.2884 13.6591C38.5185 13.5085 38.7798 13.3949 39.0724 13.3182C39.3679 13.2415 39.6776 13.1875 40.0014 13.1562C40.3821 13.1165 40.6889 13.0795 40.9219 13.0455C41.1548 13.0085 41.3239 12.9545 41.429 12.8835C41.5341 12.8125 41.5866 12.7074 41.5866 12.5682V12.5426C41.5866 12.2727 41.5014 12.0639 41.331 11.9162C41.1634 11.7685 40.9247 11.6946 40.6151 11.6946C40.2884 11.6946 40.0284 11.767 39.8352 11.9119C39.642 12.054 39.5142 12.233 39.4517 12.4489L37.7727 12.3125C37.858 11.9148 38.0256 11.571 38.2756 11.2812C38.5256 10.9886 38.848 10.7642 39.2429 10.608C39.6406 10.4489 40.1009 10.3693 40.6236 10.3693C40.9872 10.3693 41.3352 10.4119 41.6676 10.4972C42.0028 10.5824 42.2997 10.7145 42.5582 10.8935C42.8196 11.0724 43.0256 11.3026 43.1761 11.5838C43.3267 11.8622 43.402 12.196 43.402 12.5852V17H41.6804V16.0923H41.6293C41.5241 16.2969 41.3835 16.4773 41.2074 16.6335C41.0312 16.7869 40.8196 16.9077 40.5724 16.9957C40.3253 17.081 40.0398 17.1236 39.7159 17.1236ZM40.2358 15.8707C40.5028 15.8707 40.7386 15.8182 40.9432 15.7131C41.1477 15.6051 41.3082 15.4602 41.4247 15.2784C41.5412 15.0966 41.5994 14.8906 41.5994 14.6605V13.9659C41.5426 14.0028 41.4645 14.0369 41.3651 14.0682C41.2685 14.0966 41.1591 14.1236 41.0369 14.1491C40.9148 14.1719 40.7926 14.1932 40.6705 14.2131C40.5483 14.2301 40.4375 14.2457 40.3381 14.2599C40.125 14.2912 39.9389 14.3409 39.7798 14.4091C39.6207 14.4773 39.4972 14.5696 39.4091 14.6861C39.321 14.7997 39.277 14.9418 39.277 15.1122C39.277 15.3594 39.3665 15.5483 39.5455 15.679C39.7273 15.8068 39.9574 15.8707 40.2358 15.8707ZM41.5355 8.17045H42.8011C42.7983 8.6875 42.6065 9.10369 42.2259 9.41903C41.848 9.73437 41.3366 9.89205 40.6918 9.89205C40.044 9.89205 39.5313 9.73437 39.1534 9.41903C38.7756 9.10369 38.5866 8.6875 38.5866 8.17045H39.8438C39.8409 8.36648 39.9034 8.54261 40.0312 8.69886C40.1619 8.85511 40.3821 8.93324 40.6918 8.93324C40.9929 8.93324 41.2088 8.85653 41.3395 8.70312C41.4702 8.54972 41.5355 8.37216 41.5355 8.17045ZM40.6193 19.4503C40.3494 19.4503 40.1179 19.3608 39.9247 19.1818C39.7315 19.0028 39.6349 18.7869 39.6349 18.5341C39.6349 18.2812 39.7315 18.0653 39.9247 17.8864C40.1179 17.7074 40.3494 17.6179 40.6193 17.6179C40.8892 17.6179 41.1193 17.7074 41.3097 17.8864C41.5028 18.0653 41.5994 18.2812 41.5994 18.5341C41.5994 18.7869 41.5028 19.0028 41.3097 19.1818C41.1193 19.3608 40.8892 19.4503 40.6193 19.4503ZM46.6257 13.2159V17H44.8104V10.4545H46.5405V11.6094H46.6172C46.7621 11.2287 47.005 10.9276 47.3459 10.706C47.6868 10.4815 48.1001 10.3693 48.5859 10.3693C49.0405 10.3693 49.4368 10.4688 49.7749 10.6676C50.1129 10.8665 50.3757 11.1506 50.5632 11.5199C50.7507 11.8864 50.8445 12.3239 50.8445 12.8324V17H49.0291V13.1562C49.032 12.7557 48.9297 12.4432 48.7223 12.2188C48.5149 11.9915 48.2294 11.8778 47.8658 11.8778C47.6214 11.8778 47.4055 11.9304 47.218 12.0355C47.0334 12.1406 46.8885 12.294 46.7834 12.4957C46.6811 12.6946 46.6286 12.9347 46.6257 13.2159ZM55.2241 19.5909C54.636 19.5909 54.1317 19.5099 53.7113 19.348C53.2937 19.1889 52.9613 18.9716 52.7141 18.696C52.467 18.4205 52.3065 18.1108 52.2326 17.767L53.9116 17.5412C53.9627 17.6719 54.0437 17.794 54.1545 17.9077C54.2653 18.0213 54.4116 18.1122 54.5934 18.1804C54.7781 18.2514 55.0025 18.2869 55.2667 18.2869C55.6616 18.2869 55.9869 18.1903 56.2425 17.9972C56.5011 17.8068 56.6303 17.4872 56.6303 17.0384V15.8409H56.5536C56.4741 16.0227 56.3548 16.1946 56.1957 16.3565C56.0366 16.5185 55.832 16.6506 55.582 16.7528C55.332 16.8551 55.0337 16.9062 54.6871 16.9062C54.1957 16.9062 53.7482 16.7926 53.3448 16.5653C52.9442 16.3352 52.6246 15.9844 52.386 15.5128C52.1502 15.0384 52.0323 14.4389 52.0323 13.7145C52.0323 12.973 52.1531 12.3537 52.3945 11.8565C52.636 11.3594 52.957 10.9872 53.3576 10.7401C53.761 10.4929 54.2028 10.3693 54.6829 10.3693C55.0494 10.3693 55.3562 10.4318 55.6033 10.5568C55.8505 10.679 56.0494 10.8324 56.1999 11.017C56.3533 11.1989 56.4712 11.3778 56.5536 11.554H56.6218V10.4545H58.4244V17.0639C58.4244 17.6207 58.288 18.0866 58.0153 18.4616C57.7425 18.8366 57.3647 19.1179 56.8817 19.3054C56.4016 19.4957 55.8491 19.5909 55.2241 19.5909ZM55.2624 15.5426C55.555 15.5426 55.8022 15.4702 56.0039 15.3253C56.2085 15.1776 56.3647 14.9673 56.4727 14.6946C56.5835 14.419 56.6388 14.0895 56.6388 13.706C56.6388 13.3224 56.5849 12.9901 56.4769 12.7088C56.369 12.4247 56.2127 12.2045 56.0082 12.0483C55.8036 11.892 55.555 11.8139 55.2624 11.8139C54.9641 11.8139 54.7127 11.8949 54.5082 12.0568C54.3036 12.2159 54.1488 12.4375 54.0437 12.7216C53.9386 13.0057 53.886 13.3338 53.886 13.706C53.886 14.0838 53.9386 14.4105 54.0437 14.6861C54.1516 14.9588 54.3065 15.1705 54.5082 15.321C54.7127 15.4687 54.9641 15.5426 55.2624 15.5426ZM66.1278 10.4545V11.8182H62.1861V10.4545H66.1278ZM63.081 8.88636H64.8963V14.9886C64.8963 15.1562 64.9219 15.2869 64.973 15.3807C65.0241 15.4716 65.0952 15.5355 65.1861 15.5724C65.2798 15.6094 65.3878 15.6278 65.5099 15.6278C65.5952 15.6278 65.6804 15.6207 65.7656 15.6065C65.8509 15.5895 65.9162 15.5767 65.9616 15.5682L66.2472 16.919C66.1563 16.9474 66.0284 16.9801 65.8636 17.017C65.6989 17.0568 65.4986 17.081 65.2628 17.0895C64.8253 17.1065 64.4418 17.0483 64.1122 16.9148C63.7855 16.7812 63.5313 16.5739 63.3494 16.2926C63.1676 16.0114 63.0781 15.6562 63.081 15.2273V8.88636ZM69.2663 13.2159V17H67.451V8.27273H69.2152V11.6094H69.2919C69.4396 11.223 69.6783 10.9205 70.0078 10.7017C70.3374 10.4801 70.7507 10.3693 71.2479 10.3693C71.7024 10.3693 72.0987 10.4688 72.4368 10.6676C72.7777 10.8636 73.0419 11.1463 73.2294 11.5156C73.4197 11.8821 73.5135 12.321 73.5107 12.8324V17H71.6953V13.1562C71.6982 12.7528 71.5959 12.4389 71.3885 12.2145C71.1839 11.9901 70.897 11.8778 70.5277 11.8778C70.2805 11.8778 70.0618 11.9304 69.8714 12.0355C69.6839 12.1406 69.5362 12.294 69.4283 12.4957C69.3232 12.6946 69.2692 12.9347 69.2663 13.2159ZM77.9222 17.1278C77.2489 17.1278 76.6694 16.9915 76.1836 16.7188C75.7006 16.4432 75.3285 16.054 75.0671 15.5511C74.8058 15.0455 74.6751 14.4474 74.6751 13.7571C74.6751 13.0838 74.8058 12.4929 75.0671 11.9844C75.3285 11.4759 75.6964 11.0795 76.1708 10.7955C76.6481 10.5114 77.2077 10.3693 77.8498 10.3693C78.2816 10.3693 78.6836 10.4389 79.0558 10.5781C79.4308 10.7145 79.7575 10.9205 80.0359 11.196C80.3171 11.4716 80.5359 11.8182 80.6921 12.2358C80.8484 12.6506 80.9265 13.1364 80.9265 13.6932V14.1918H75.3995V13.0668H79.2177C79.2177 12.8054 79.1609 12.5739 79.0472 12.3722C78.9336 12.1705 78.7759 12.0128 78.5742 11.8991C78.3754 11.7827 78.1438 11.7244 77.8796 11.7244C77.604 11.7244 77.3597 11.7884 77.1467 11.9162C76.9364 12.0412 76.7717 12.2102 76.6523 12.4233C76.533 12.6335 76.4719 12.8679 76.4691 13.1264V14.196C76.4691 14.5199 76.5288 14.7997 76.6481 15.0355C76.7702 15.2713 76.9421 15.4531 77.1637 15.581C77.3853 15.7088 77.6481 15.7727 77.9521 15.7727C78.1538 15.7727 78.3384 15.7443 78.506 15.6875C78.6737 15.6307 78.8171 15.5455 78.9364 15.4318C79.0558 15.3182 79.1467 15.179 79.2092 15.0142L80.8881 15.125C80.8029 15.5284 80.6282 15.8807 80.364 16.1818C80.1026 16.4801 79.7646 16.7131 79.3498 16.8807C78.9379 17.0455 78.462 17.1278 77.9222 17.1278ZM78.6637 9.67045L77.8072 8.63068L76.9506 9.67045H75.4038V9.6108L77.1296 7.7358H78.4805L80.2106 9.6108V9.67045H78.6637ZM82.1112 17V10.4545H83.8413V11.6094H83.918C84.0543 11.2259 84.2816 10.9233 84.5998 10.7017C84.918 10.4801 85.2987 10.3693 85.7418 10.3693C86.1907 10.3693 86.5728 10.4815 86.8881 10.706C87.2035 10.9276 87.4137 11.2287 87.5188 11.6094H87.587C87.7205 11.2344 87.962 10.9347 88.3114 10.7102C88.6637 10.483 89.0799 10.3693 89.56 10.3693C90.1708 10.3693 90.6665 10.5639 91.0472 10.9531C91.4308 11.3395 91.6225 11.8878 91.6225 12.598V17H89.8114V12.956C89.8114 12.5923 89.7148 12.3196 89.5217 12.1378C89.3285 11.956 89.087 11.8651 88.7972 11.8651C88.4677 11.8651 88.2106 11.9702 88.0259 12.1804C87.8413 12.3878 87.7489 12.6619 87.7489 13.0028V17H85.989V12.9176C85.989 12.5966 85.8967 12.3409 85.712 12.1506C85.5302 11.9602 85.2901 11.8651 84.9918 11.8651C84.7901 11.8651 84.6083 11.9162 84.4464 12.0185C84.2873 12.1179 84.1609 12.2585 84.0671 12.4403C83.9734 12.6193 83.9265 12.8295 83.9265 13.071V17H82.1112ZM99.6136 8.27273V17H97.7685V10.0241H97.7173L95.7188 11.277V9.64062L97.8793 8.27273H99.6136ZM106.298 13.2159V17H104.482V10.4545H106.212V11.6094H106.289C106.434 11.2287 106.677 10.9276 107.018 10.706C107.359 10.4815 107.772 10.3693 108.258 10.3693C108.712 10.3693 109.109 10.4688 109.447 10.6676C109.785 10.8665 110.048 11.1506 110.235 11.5199C110.423 11.8864 110.516 12.3239 110.516 12.8324V17H108.701V13.1562C108.704 12.7557 108.602 12.4432 108.394 12.2188C108.187 11.9915 107.901 11.8778 107.538 11.8778C107.293 11.8778 107.077 11.9304 106.89 12.0355C106.705 12.1406 106.56 12.294 106.455 12.4957C106.353 12.6946 106.3 12.9347 106.298 13.2159ZM113.814 17.1236C113.396 17.1236 113.024 17.0511 112.697 16.9062C112.37 16.7585 112.112 16.5412 111.922 16.2543C111.734 15.9645 111.64 15.6037 111.64 15.1719C111.64 14.8082 111.707 14.5028 111.841 14.2557C111.974 14.0085 112.156 13.8097 112.386 13.6591C112.616 13.5085 112.877 13.3949 113.17 13.3182C113.466 13.2415 113.775 13.1875 114.099 13.1562C114.48 13.1165 114.787 13.0795 115.02 13.0455C115.252 13.0085 115.422 12.9545 115.527 12.8835C115.632 12.8125 115.684 12.7074 115.684 12.5682V12.5426C115.684 12.2727 115.599 12.0639 115.429 11.9162C115.261 11.7685 115.022 11.6946 114.713 11.6946C114.386 11.6946 114.126 11.767 113.933 11.9119C113.74 12.054 113.612 12.233 113.549 12.4489L111.87 12.3125C111.956 11.9148 112.123 11.571 112.373 11.2812C112.623 10.9886 112.946 10.7642 113.341 10.608C113.738 10.4489 114.199 10.3693 114.721 10.3693C115.085 10.3693 115.433 10.4119 115.765 10.4972C116.1 10.5824 116.397 10.7145 116.656 10.8935C116.917 11.0724 117.123 11.3026 117.274 11.5838C117.424 11.8622 117.5 12.196 117.5 12.5852V17H115.778V16.0923H115.727C115.622 16.2969 115.481 16.4773 115.305 16.6335C115.129 16.7869 114.917 16.9077 114.67 16.9957C114.423 17.081 114.137 17.1236 113.814 17.1236ZM114.333 15.8707C114.6 15.8707 114.836 15.8182 115.041 15.7131C115.245 15.6051 115.406 15.4602 115.522 15.2784C115.639 15.0966 115.697 14.8906 115.697 14.6605V13.9659C115.64 14.0028 115.562 14.0369 115.463 14.0682C115.366 14.0966 115.257 14.1236 115.135 14.1491C115.012 14.1719 114.89 14.1932 114.768 14.2131C114.646 14.2301 114.535 14.2457 114.436 14.2599C114.223 14.2912 114.037 14.3409 113.877 14.4091C113.718 14.4773 113.595 14.5696 113.507 14.6861C113.419 14.7997 113.375 14.9418 113.375 15.1122C113.375 15.3594 113.464 15.5483 113.643 15.679C113.825 15.8068 114.055 15.8707 114.333 15.8707ZM115.633 8.17045H116.899C116.896 8.6875 116.704 9.10369 116.324 9.41903C115.946 9.73437 115.434 9.89205 114.789 9.89205C114.142 9.89205 113.629 9.73437 113.251 9.41903C112.873 9.10369 112.684 8.6875 112.684 8.17045H113.941C113.939 8.36648 114.001 8.54261 114.129 8.69886C114.26 8.85511 114.48 8.93324 114.789 8.93324C115.091 8.93324 115.306 8.85653 115.437 8.70312C115.568 8.54972 115.633 8.37216 115.633 8.17045ZM118.908 17V10.4545H120.638V11.6094H120.715C120.851 11.2259 121.078 10.9233 121.397 10.7017C121.715 10.4801 122.096 10.3693 122.539 10.3693C122.988 10.3693 123.37 10.4815 123.685 10.706C124 10.9276 124.211 11.2287 124.316 11.6094H124.384C124.517 11.2344 124.759 10.9347 125.108 10.7102C125.461 10.483 125.877 10.3693 126.357 10.3693C126.968 10.3693 127.463 10.5639 127.844 10.9531C128.228 11.3395 128.419 11.8878 128.419 12.598V17H126.608V12.956C126.608 12.5923 126.512 12.3196 126.319 12.1378C126.125 11.956 125.884 11.8651 125.594 11.8651C125.265 11.8651 125.007 11.9702 124.823 12.1804C124.638 12.3878 124.546 12.6619 124.546 13.0028V17H122.786V12.9176C122.786 12.5966 122.694 12.3409 122.509 12.1506C122.327 11.9602 122.087 11.8651 121.789 11.8651C121.587 11.8651 121.405 11.9162 121.243 12.0185C121.084 12.1179 120.958 12.2585 120.864 12.4403C120.77 12.6193 120.723 12.8295 120.723 13.071V17H118.908ZM132.665 17V8.27273H134.48V11.554H134.536C134.615 11.3778 134.73 11.1989 134.881 11.017C135.034 10.8324 135.233 10.679 135.477 10.5568C135.724 10.4318 136.031 10.3693 136.398 10.3693C136.875 10.3693 137.315 10.4943 137.719 10.7443C138.122 10.9915 138.445 11.3651 138.686 11.8651C138.928 12.3622 139.048 12.9858 139.048 13.7358C139.048 14.4659 138.93 15.0824 138.695 15.5852C138.462 16.0852 138.143 16.4645 137.74 16.723C137.339 16.9787 136.891 17.1065 136.393 17.1065C136.041 17.1065 135.741 17.0483 135.494 16.9318C135.25 16.8153 135.05 16.669 134.893 16.4929C134.737 16.3139 134.618 16.1335 134.536 15.9517H134.455V17H132.665ZM134.442 13.7273C134.442 14.1165 134.496 14.456 134.604 14.7457C134.712 15.0355 134.868 15.2614 135.072 15.4233C135.277 15.5824 135.526 15.6619 135.818 15.6619C136.114 15.6619 136.364 15.581 136.568 15.419C136.773 15.2543 136.928 15.027 137.033 14.7372C137.141 14.4446 137.195 14.108 137.195 13.7273C137.195 13.3494 137.142 13.017 137.037 12.7301C136.932 12.4432 136.777 12.2187 136.572 12.0568C136.368 11.8949 136.116 11.8139 135.818 11.8139C135.523 11.8139 135.273 11.892 135.068 12.0483C134.866 12.2045 134.712 12.4261 134.604 12.7131C134.496 13 134.442 13.3381 134.442 13.7273ZM142.126 17.1236C141.708 17.1236 141.336 17.0511 141.01 16.9062C140.683 16.7585 140.424 16.5412 140.234 16.2543C140.047 15.9645 139.953 15.6037 139.953 15.1719C139.953 14.8082 140.02 14.5028 140.153 14.2557C140.287 14.0085 140.468 13.8097 140.699 13.6591C140.929 13.5085 141.19 13.3949 141.483 13.3182C141.778 13.2415 142.088 13.1875 142.412 13.1562C142.792 13.1165 143.099 13.0795 143.332 13.0455C143.565 13.0085 143.734 12.9545 143.839 12.8835C143.944 12.8125 143.997 12.7074 143.997 12.5682V12.5426C143.997 12.2727 143.912 12.0639 143.741 11.9162C143.574 11.7685 143.335 11.6946 143.025 11.6946C142.699 11.6946 142.439 11.767 142.245 11.9119C142.052 12.054 141.924 12.233 141.862 12.4489L140.183 12.3125C140.268 11.9148 140.436 11.571 140.686 11.2812C140.936 10.9886 141.258 10.7642 141.653 10.608C142.051 10.4489 142.511 10.3693 143.034 10.3693C143.397 10.3693 143.745 10.4119 144.078 10.4972C144.413 10.5824 144.71 10.7145 144.968 10.8935C145.23 11.0724 145.436 11.3026 145.586 11.5838C145.737 11.8622 145.812 12.196 145.812 12.5852V17H144.091V16.0923H144.039C143.934 16.2969 143.794 16.4773 143.618 16.6335C143.441 16.7869 143.23 16.9077 142.983 16.9957C142.735 17.081 142.45 17.1236 142.126 17.1236ZM142.646 15.8707C142.913 15.8707 143.149 15.8182 143.353 15.7131C143.558 15.6051 143.718 15.4602 143.835 15.2784C143.951 15.0966 144.01 14.8906 144.01 14.6605V13.9659C143.953 14.0028 143.875 14.0369 143.775 14.0682C143.679 14.0966 143.569 14.1236 143.447 14.1491C143.325 14.1719 143.203 14.1932 143.081 14.2131C142.958 14.2301 142.848 14.2457 142.748 14.2599C142.535 14.2912 142.349 14.3409 142.19 14.4091C142.031 14.4773 141.907 14.5696 141.819 14.6861C141.731 14.7997 141.687 14.9418 141.687 15.1122C141.687 15.3594 141.777 15.5483 141.956 15.679C142.137 15.8068 142.368 15.8707 142.646 15.8707ZM143.771 9.51705H142.424L142.331 8.75C142.632 8.7358 142.846 8.69602 142.974 8.63068C143.102 8.5625 143.164 8.47301 143.162 8.36222C143.164 8.20881 143.083 8.10511 142.919 8.05114C142.757 7.99716 142.554 7.97017 142.309 7.97017L142.356 7.14773C143.115 7.14773 143.691 7.25 144.086 7.45455C144.484 7.65909 144.681 7.94318 144.679 8.30682C144.681 8.56534 144.588 8.76136 144.397 8.89489C144.21 9.02557 144.001 9.10795 143.771 9.14205V9.51705ZM150.178 17.1278C149.516 17.1278 148.944 16.9872 148.461 16.706C147.98 16.4219 147.61 16.027 147.348 15.5213C147.087 15.0128 146.956 14.4233 146.956 13.7528C146.956 13.0767 147.087 12.4858 147.348 11.9801C147.61 11.4716 147.98 11.0767 148.461 10.7955C148.944 10.5114 149.516 10.3693 150.178 10.3693C150.84 10.3693 151.411 10.5114 151.891 10.7955C152.374 11.0767 152.746 11.4716 153.007 11.9801C153.269 12.4858 153.4 13.0767 153.4 13.7528C153.4 14.4233 153.269 15.0128 153.007 15.5213C152.746 16.027 152.374 16.4219 151.891 16.706C151.411 16.9872 150.84 17.1278 150.178 17.1278ZM150.186 15.7216C150.488 15.7216 150.739 15.6364 150.941 15.4659C151.142 15.2926 151.294 15.0568 151.397 14.7585C151.502 14.4602 151.554 14.1207 151.554 13.7401C151.554 13.3594 151.502 13.0199 151.397 12.7216C151.294 12.4233 151.142 12.1875 150.941 12.0142C150.739 11.8409 150.488 11.7543 150.186 11.7543C149.882 11.7543 149.627 11.8409 149.419 12.0142C149.215 12.1875 149.06 12.4233 148.955 12.7216C148.853 13.0199 148.801 13.3594 148.801 13.7401C148.801 14.1207 148.853 14.4602 148.955 14.7585C149.06 15.0568 149.215 15.2926 149.419 15.4659C149.627 15.6364 149.882 15.7216 150.186 15.7216ZM159.173 13.2159V17H157.357V8.27273H159.121V11.6094H159.198C159.346 11.223 159.585 10.9205 159.914 10.7017C160.244 10.4801 160.657 10.3693 161.154 10.3693C161.609 10.3693 162.005 10.4688 162.343 10.6676C162.684 10.8636 162.948 11.1463 163.136 11.5156C163.326 11.8821 163.42 12.321 163.417 12.8324V17H161.602V13.1562C161.604 12.7528 161.502 12.4389 161.295 12.2145C161.09 11.9901 160.803 11.8778 160.434 11.8778C160.187 11.8778 159.968 11.9304 159.778 12.0355C159.59 12.1406 159.442 12.294 159.335 12.4957C159.229 12.6946 159.175 12.9347 159.173 13.2159ZM166.712 17.1236C166.294 17.1236 165.922 17.0511 165.596 16.9062C165.269 16.7585 165.01 16.5412 164.82 16.2543C164.632 15.9645 164.539 15.6037 164.539 15.1719C164.539 14.8082 164.605 14.5028 164.739 14.2557C164.873 14.0085 165.054 13.8097 165.284 13.6591C165.515 13.5085 165.776 13.3949 166.069 13.3182C166.364 13.2415 166.674 13.1875 166.998 13.1562C167.378 13.1165 167.685 13.0795 167.918 13.0455C168.151 13.0085 168.32 12.9545 168.425 12.8835C168.53 12.8125 168.583 12.7074 168.583 12.5682V12.5426C168.583 12.2727 168.498 12.0639 168.327 11.9162C168.159 11.7685 167.921 11.6946 167.611 11.6946C167.284 11.6946 167.025 11.767 166.831 11.9119C166.638 12.054 166.51 12.233 166.448 12.4489L164.769 12.3125C164.854 11.9148 165.022 11.571 165.272 11.2812C165.522 10.9886 165.844 10.7642 166.239 10.608C166.637 10.4489 167.097 10.3693 167.62 10.3693C167.983 10.3693 168.331 10.4119 168.664 10.4972C168.999 10.5824 169.296 10.7145 169.554 10.8935C169.816 11.0724 170.022 11.3026 170.172 11.5838C170.323 11.8622 170.398 12.196 170.398 12.5852V17H168.676V16.0923H168.625C168.52 16.2969 168.38 16.4773 168.203 16.6335C168.027 16.7869 167.816 16.9077 167.569 16.9957C167.321 17.081 167.036 17.1236 166.712 17.1236ZM167.232 15.8707C167.499 15.8707 167.735 15.8182 167.939 15.7131C168.144 15.6051 168.304 15.4602 168.421 15.2784C168.537 15.0966 168.596 14.8906 168.596 14.6605V13.9659C168.539 14.0028 168.461 14.0369 168.361 14.0682C168.265 14.0966 168.155 14.1236 168.033 14.1491C167.911 14.1719 167.789 14.1932 167.667 14.2131C167.544 14.2301 167.434 14.2457 167.334 14.2599C167.121 14.2912 166.935 14.3409 166.776 14.4091C166.617 14.4773 166.493 14.5696 166.405 14.6861C166.317 14.7997 166.273 14.9418 166.273 15.1122C166.273 15.3594 166.363 15.5483 166.542 15.679C166.723 15.8068 166.953 15.8707 167.232 15.8707ZM167.057 9.6108L165.757 7.67188H167.432L168.34 9.6108H167.057ZM173.622 13.2159V17H171.806V10.4545H173.537V11.6094H173.613C173.758 11.2287 174.001 10.9276 174.342 10.706C174.683 10.4815 175.096 10.3693 175.582 10.3693C176.037 10.3693 176.433 10.4688 176.771 10.6676C177.109 10.8665 177.372 11.1506 177.559 11.5199C177.747 11.8864 177.841 12.3239 177.841 12.8324V17H176.025V13.1562C176.028 12.7557 175.926 12.4432 175.718 12.2188C175.511 11.9915 175.225 11.8778 174.862 11.8778C174.618 11.8778 174.402 11.9304 174.214 12.0355C174.029 12.1406 173.885 12.294 173.779 12.4957C173.677 12.6946 173.625 12.9347 173.622 13.2159ZM181.087 13.2159V17H179.271V8.27273H181.036V11.6094H181.112C181.26 11.223 181.499 10.9205 181.828 10.7017C182.158 10.4801 182.571 10.3693 183.068 10.3693C183.523 10.3693 183.919 10.4688 184.257 10.6676C184.598 10.8636 184.862 11.1463 185.05 11.5156C185.24 11.8821 185.334 12.321 185.331 12.8324V17H183.516V13.1562C183.518 12.7528 183.416 12.4389 183.209 12.2145C183.004 11.9901 182.717 11.8778 182.348 11.8778C182.101 11.8778 181.882 11.9304 181.692 12.0355C181.504 12.1406 181.357 12.294 181.249 12.4957C181.143 12.6946 181.089 12.9347 181.087 13.2159Z" fill="white"/>
<defs>
<radialGradient id="paint0_radial_3290_16" cx="0" cy="0" r="1" gradientUnits="userSpaceOnUse" gradientTransform="translate(-4.70608 3) rotate(27.8056) scale(41.8031 23.1591)">
<stop stop-color="#F92821"/>
<stop offset="1" stop-color="#D90B0F"/>
</radialGradient>
<radialGradient id="paint1_radial_3290_16" cx="0" cy="0" r="1" gradientUnits="userSpaceOnUse" gradientTransform="translate(99.5) rotate(90) scale(26 173.048)">
<stop stop-color="#FDFDF0"/>
<stop offset="0.5" stop-color="#E2C59F"/>
<stop offset="0.918359" stop-color="#DDA071"/>
<stop offset="1" stop-color="#F8D197"/>
</radialGradient>
</defs>
</svg>
