<svg width="16" height="16" viewBox="0 0 16 16" fill="none" xmlns="http://www.w3.org/2000/svg">
<g clip-path="url(#clip0_2204_3523)">
<path d="M14.7049 4.11974C14.6967 3.68776 14.6888 3.27967 14.6888 2.88488C14.6888 2.73635 14.6298 2.5939 14.5248 2.48887C14.4198 2.38385 14.2773 2.32484 14.1288 2.32484C11.7337 2.32484 9.91011 1.63651 8.39008 0.158603C8.28556 0.0569154 8.14549 2.00272e-05 7.99966 2.00272e-05C7.85383 2.00272e-05 7.71376 0.0569154 7.60923 0.158603C6.08936 1.63651 4.26609 2.32484 1.87113 2.32484C1.7226 2.32484 1.58015 2.38385 1.47512 2.48887C1.37009 2.5939 1.31109 2.73635 1.31109 2.88488C1.31109 3.27975 1.30332 3.68798 1.29503 4.12004C1.21827 8.14008 1.11313 13.6457 7.81623 15.9692C7.93502 16.0104 8.06422 16.0104 8.18302 15.9692C14.8866 13.6457 14.7816 8.13986 14.7049 4.11974ZM7.9997 14.8457C2.25091 12.7574 2.33783 8.18257 2.41497 4.14139C2.4196 3.89886 2.42408 3.66379 2.42721 3.43335C4.67036 3.33867 6.46414 2.65893 7.9997 1.32125C9.5354 2.65893 11.3295 3.33874 13.5728 3.43335C13.5759 3.66371 13.5804 3.89863 13.585 4.14102C13.6621 8.18235 13.7489 12.7573 7.9997 14.8457Z" fill="#939CA3"/>
<path d="M9.92824 6.05457L7.22518 8.75747L6.07172 7.60401C5.96609 7.50191 5.82458 7.44539 5.67767 7.44664C5.53076 7.44789 5.39023 7.5068 5.28635 7.61069C5.18247 7.71458 5.12357 7.85512 5.12233 8.00202C5.1211 8.14893 5.17763 8.29044 5.27975 8.39606L6.8292 9.94551C6.88115 9.99758 6.94287 10.0389 7.01083 10.067C7.07878 10.0951 7.15163 10.1096 7.22518 10.1095C7.29873 10.1096 7.37158 10.0951 7.43954 10.067C7.50749 10.0389 7.56922 9.99758 7.62117 9.94551L10.7201 6.84661C10.7722 6.79462 10.8134 6.7329 10.8416 6.66495C10.8697 6.59701 10.8842 6.52419 10.8842 6.45064C10.8843 6.3771 10.8698 6.30427 10.8416 6.23632C10.8135 6.16838 10.7722 6.10664 10.7202 6.05464C10.6152 5.94962 10.4728 5.89061 10.3242 5.89059C10.1757 5.89058 10.0333 5.94956 9.92824 6.05457Z" fill="#939CA3"/>
</g>
<defs>
<clipPath id="clip0_2204_3523">
<rect width="16" height="16" fill="white"/>
</clipPath>
</defs>
</svg>
