<svg width="16" height="16" viewBox="0 0 16 16" fill="none" xmlns="http://www.w3.org/2000/svg">
<path d="M14.8666 5H1.13343C1.05972 5 1 5.07174 1 5.16028V6.73107C1 6.81961 1.05972 6.89135 1.13343 6.89135H1.70777C1.86965 6.89135 2.00132 7.04958 2.00132 7.24397C2.00132 7.43837 1.86965 7.5966 1.70777 7.5966H1.13343C1.05972 7.5966 1 7.66834 1 7.75688V8.36609C1 8.45463 1.05972 8.52637 1.13343 8.52637H1.70777C1.86965 8.52637 2.00132 8.6846 2.00132 8.879C2.00132 9.07339 1.86965 9.23162 1.70777 9.23162H1.13343C1.05972 9.23162 1 9.30336 1 9.3919V10.1611C1 10.2497 1.05972 10.3214 1.13343 10.3214V11H7.689V10.3214H8.311V11H14.8666V10.3214C14.9403 10.3214 15 10.2497 15 10.1611V9.3919C15 9.30336 14.9403 9.23162 14.8666 9.23162H14.2922C14.1303 9.23162 13.9987 9.07339 13.9987 8.879C13.9987 8.6846 14.1303 8.52637 14.2922 8.52637H14.8666C14.9403 8.52637 15 8.45463 15 8.36609V7.75688C15 7.66834 14.9403 7.5966 14.8666 7.5966H14.2922C14.1303 7.5966 13.9987 7.43837 13.9987 7.24397C13.9987 7.04958 14.1303 6.89135 14.2922 6.89135H14.8666C14.9403 6.89135 15 6.81961 15 6.73107V5.16028C15.0001 5.07174 14.9403 5 14.8666 5ZM1.95958 10.7382H1.63278V10.1611H1.95958V10.7382ZM14.0405 10.1611H14.3674V10.7382H14.0405V10.1611ZM2.61339 10.7382H2.28649V10.1611H2.61339V10.7382ZM3.26715 10.7382H2.9403V10.1611H3.26715V10.7382ZM3.92091 10.7382H3.594V10.1611H3.92091V10.7382ZM4.57467 10.7382H4.24776V10.1611H4.57467V10.7382ZM5.22837 10.7382H4.90152V10.1611H5.22837V10.7382ZM5.88213 10.7382H5.55528V10.1611H5.88213V10.7382ZM6.53589 10.7382H6.20904V10.1611H6.53589V10.7382ZM7.18965 10.7382H6.86279V10.1611H7.18965V10.7382ZM2.97184 8.92163V6.17007H13.0282V8.92163H2.97184ZM9.13737 10.7382H8.81046V10.1611H9.13737V10.7382ZM9.79112 10.7382H9.46422V10.1611H9.79112V10.7382ZM10.4449 10.7382H10.118V10.1611H10.4449V10.7382ZM11.0986 10.7382H10.7717V10.1611H11.0986V10.7382ZM11.7524 10.7382H11.4255V10.1611H11.7524V10.7382ZM12.4062 10.7382H12.0792V10.1611H12.4062V10.7382ZM13.0599 10.7382H12.733V10.1611H13.0599V10.7382ZM13.7136 10.7382H13.3868V10.1611H13.7136V10.7382ZM10.4882 7.56031H11.0535V8.52477H10.8027V8.31339C10.6781 8.46309 10.5329 8.53798 10.3672 8.53798C10.2645 8.53798 10.1681 8.51329 10.0779 8.46399C9.98775 8.41475 9.90929 8.34692 9.84257 8.26056C9.77581 8.1742 9.72307 8.07251 9.68417 7.95531C9.64526 7.83818 9.62588 7.71181 9.62588 7.57615C9.62588 7.44753 9.64526 7.32642 9.68417 7.21281C9.72307 7.09914 9.77655 6.9997 9.84482 6.91424C9.91297 6.82884 9.99324 6.76094 10.0856 6.71074C10.178 6.66054 10.2785 6.63541 10.387 6.63541C10.5336 6.63541 10.6594 6.6724 10.7642 6.74639C10.8691 6.82038 10.9479 6.91994 11.0007 7.04497L10.7741 7.24577C10.7345 7.15248 10.6792 7.08113 10.6081 7.03176C10.5369 6.98245 10.4596 6.95777 10.376 6.95777C10.3101 6.95777 10.2495 6.97457 10.1946 7.00797C10.1395 7.04144 10.0926 7.08722 10.0537 7.14543C10.0149 7.20352 9.98481 7.27052 9.96357 7.34623C9.94233 7.42202 9.93165 7.50216 9.93165 7.58672C9.93165 7.67482 9.94339 7.75714 9.96688 7.83375C9.99031 7.91037 10.0225 7.97686 10.0636 8.03321C10.1047 8.08963 10.1535 8.13406 10.2099 8.16663C10.2664 8.19927 10.3276 8.21555 10.3936 8.21555C10.5446 8.21555 10.681 8.13015 10.8027 7.95922V7.82709H10.4882V7.56031ZM12.2809 7.56294C12.3542 7.52421 12.4099 7.46478 12.4481 7.38457C12.4862 7.30443 12.5053 7.21858 12.5053 7.1269C12.5053 7.06882 12.4968 7.01111 12.4799 6.95386C12.4631 6.89661 12.4392 6.84557 12.4085 6.80056C12.3777 6.75568 12.3402 6.71908 12.2962 6.69093C12.2522 6.66278 12.2031 6.64862 12.1488 6.64862H11.313V8.52477H12.0675C12.1364 8.52477 12.2013 8.51419 12.2621 8.4931C12.323 8.47194 12.3765 8.4411 12.4228 8.40058C12.4689 8.36013 12.5052 8.30992 12.5316 8.24998C12.558 8.1901 12.5712 8.12047 12.5712 8.04123C12.5712 7.91793 12.5451 7.81529 12.4931 7.73335C12.4411 7.65148 12.3703 7.59461 12.2809 7.56294ZM11.6166 6.9604H12.0345C12.0829 6.9604 12.1237 6.98156 12.1566 7.02381C12.1896 7.06612 12.2061 7.12338 12.2061 7.19563C12.2061 7.26955 12.1882 7.32777 12.1522 7.37002C12.1162 7.41227 12.0727 7.43343 12.0213 7.43343H11.6166V6.9604ZM12.2501 8.06764C12.2398 8.09765 12.2259 8.12355 12.2083 8.1456C12.1907 8.16766 12.1698 8.18478 12.1456 8.19715C12.1215 8.20946 12.0954 8.21561 12.0676 8.21561H11.6166V7.72149H12.0829C12.1094 7.72149 12.1335 7.72816 12.1555 7.74137C12.1775 7.75457 12.1966 7.77259 12.2127 7.79554C12.2288 7.81843 12.2416 7.84529 12.2512 7.87613C12.2607 7.90697 12.2655 7.93909 12.2655 7.97256C12.2655 8.00596 12.2603 8.0377 12.2501 8.06764Z" fill="#939CA3"/>
</svg>
